<?xml version="1.0" standalone="no"?><!DOCTYPE svg PUBLIC "-//W3C//DTD SVG 1.1//EN" "http://www.w3.org/Graphics/SVG/1.1/DTD/svg11.dtd"><svg t="1790407271214" class="icon" viewBox="0 0 1024 1024" version="1.1" xmlns="http://www.w3.org/2000/svg" p-id="27944" xmlns:xlink="http://www.w3.org/1999/xlink" width="200" height="200"><path d="M69.0496 768.1088A511.7824 511.7824 0 0 1 512.2176 0.4736C794.88 0.4736 1024 229.5936 1024 512.2176 1024 794.88 794.88 1024 512.2176 1024a511.7312 511.7312 0 0 1-443.168-255.8912z m443.168 162.8544c231.2768 0 418.7456-187.4688 418.7456-418.7456 0-231.2384-187.4688-418.7072-418.7456-418.7072-231.2384 0-418.7072 187.4688-418.7072 418.7456 0 231.2384 187.4688 418.7072 418.7456 418.7072h-0.0384zM281.4912 405.1008c21.9392-21.9392 43.8848-21.9392 65.8304 0l197.376 197.376c21.9392 21.9456 21.9392 43.8848 0 65.8304-21.9456 21.9392-43.8912 21.9392-65.8304 0l-197.376-197.4144c-21.9456-21.9392-21.9456-43.8848 0-65.792z m460.5824 0c21.9392 21.9456 21.9392 43.8848 0 65.8304l-197.376 197.3376c-21.9456 21.9456-43.8912 21.9456-65.8304 0-21.9456-21.9392-21.9456-43.8464 0-65.792l197.4144-197.376c21.9392-21.9392 43.8848-21.9392 65.792 0z" fill="#ffffff" p-id="27945"></path></svg>